External Loads File
version=1
nRows=69
nColumns=13
Range=5.000000e-03-10 seconds
endheader
time 	forceRightX 	forceRightY 	forceRightZ 	pointRightX 	pointRightY 	pointRightZ 	forceLeftX 	forceLeftY 	forceLeftZ 	pointLeftX 	pointLeftY 	pointLeftZ 		
2.505000 274.656334 1221.317121 -0.000000 0.317224 0.184088 -0.158910 -83.299926 -104.352631 -0.000000 0.161699 0.451027 -0.402097
2.510000 290.602433 1211.824089 -0.000000 0.311026 0.179191 -0.158925 -83.023058 -100.797187 -0.000000 0.168318 0.456448 -0.402030
2.515000 303.912686 1196.262978 -0.000000 0.304644 0.174503 -0.158988 -82.583518 -97.308858 -0.000000 0.175078 0.461685 -0.401985
2.520000 313.804103 1174.679269 -0.000000 0.298158 0.170258 -0.158994 -82.090037 -93.815911 -0.000000 0.182030 0.466515 -0.401904
2.525000 321.095132 1146.809860 -0.000000 0.291547 0.166437 -0.159030 -81.724190 -90.134360 -0.000000 0.189263 0.470972 -0.401984
2.530000 326.048224 1112.579355 -0.000000 0.284896 0.163028 -0.159065 -81.569187 -86.139697 -0.000000 0.196805 0.475083 -0.402512
2.535000 325.873034 1072.781132 -0.000000 0.278247 0.160135 -0.159023 -81.458341 -81.974910 -0.000000 0.203762 0.478971 -0.401835
2.540000 324.568039 1026.088131 -0.000000 0.271478 0.157550 -0.158970 -81.756874 -77.288533 -0.000000 0.211168 0.482483 -0.401780
2.545000 320.474252 972.871543 -0.000000 0.264663 0.155398 -0.158926 -82.369386 -72.104063 -0.000000 0.218621 0.485678 -0.401703
2.550000 314.243156 912.979595 -0.000000 0.257913 0.153558 -0.158859 -83.302264 -66.262391 -0.000000 0.226463 0.488458 -0.401432
2.555000 304.365771 847.231740 -0.000000 0.251301 0.152265 -0.158702 -84.331174 -59.880180 -0.000000 0.234182 0.490709 -0.401273
2.560000 292.579673 775.597960 -0.000000 0.244195 0.151279 -0.158815 -85.427992 -52.863385 -0.000000 0.241711 0.492582 -0.401456
2.565000 278.119248 699.261516 -0.000000 0.237245 0.150847 -0.158697 -86.364517 -45.388486 -0.000000 0.249249 0.493876 -0.401750
2.570000 262.258462 619.013612 -0.000000 0.230268 0.150798 -0.158510 -87.030499 -37.389079 -0.000000 0.257028 0.494682 -0.401834
2.575000 245.172846 536.404807 -0.000000 0.223101 0.151270 -0.158326 -87.223337 -28.886432 -0.000000 0.264766 0.495052 -0.401893
2.580000 227.145189 453.170495 -0.000000 0.215870 0.152170 -0.158071 -86.749266 -19.883093 -0.000000 0.272423 0.494913 -0.401995
2.585000 208.859254 370.851843 -0.000000 0.208426 0.153578 -0.157857 -85.457234 -10.287169 -0.000000 0.279962 0.494418 -0.402096
2.590000 190.496579 291.082759 -0.000000 0.200975 0.155422 -0.157674 -83.223755 0.000282 -0.000000 0.287270 0.493446 -0.402152
2.595000 172.552517 215.110317 -0.000000 0.193509 0.157562 -0.157561 -79.993996 11.365283 -0.000000 0.294301 0.491891 -0.402307
2.600000 155.409391 143.891511 -0.000000 0.186048 0.160129 -0.157480 -75.764541 24.427466 -0.000000 0.301082 0.489928 -0.402357
2.605000 139.147722 78.068923 -0.000000 0.178724 0.163111 -0.157356 -70.658370 39.829343 -0.000000 0.307515 0.487495 -0.402491
2.610000 123.655188 17.725945 -0.000000 0.171422 0.166642 -0.156993 -64.895665 58.230482 -0.000000 0.313758 0.484360 -0.402789
2.615000 108.394785 -36.652002 -0.000000 0.164470 0.170520 -0.156902 -58.929184 79.979287 -0.000000 0.319620 0.480623 -0.402985
2.620000 93.019469 -84.499188 -0.000000 0.157870 0.174934 -0.156714 -53.196397 105.473011 -0.000000 0.325124 0.476766 -0.403105
2.625000 77.384591 -124.980448 -0.000000 0.151811 0.179569 -0.156629 -48.124714 135.057490 -0.000000 0.330147 0.472220 -0.403227
2.630000 61.597517 -157.317095 -0.000000 0.146096 0.184414 -0.156530 -44.052530 169.037662 -0.000000 0.334640 0.467114 -0.403476
2.635000 46.076824 -181.042104 -0.000000 0.140632 0.189458 -0.156451 -41.248730 207.594372 -0.000000 0.338684 0.461450 -0.403801
2.640000 31.580083 -196.177422 -0.000000 0.135340 0.194749 -0.156344 -40.000320 250.636938 -0.000000 0.342248 0.455249 -0.404164
2.645000 18.752283 -203.298687 -0.000000 0.130114 0.200431 -0.156227 -40.204190 297.712266 -0.000000 0.345853 0.448605 -0.403968
2.650000 8.817845 -203.339794 -0.000000 0.124910 0.206452 -0.156178 -42.490785 347.821252 -0.000000 0.349178 0.441929 -0.403385
2.655000 1.785483 -197.610773 -0.000000 0.119731 0.213011 -0.156021 -45.590814 399.916658 -0.000000 0.352584 0.434196 -0.403237
2.660000 -1.483948 -187.481575 -0.000000 0.114867 0.220047 -0.156006 -49.815642 452.621342 -0.000000 0.355658 0.425894 -0.403308
2.665000 -1.083130 -174.291353 -0.000000 0.110198 0.227436 -0.155845 -54.324917 504.663767 -0.000000 0.358900 0.417367 -0.403112
2.670000 2.692372 -159.165961 -0.000000 0.105688 0.235235 -0.155836 -58.637110 554.780188 -0.000000 0.362037 0.408703 -0.402615
2.675000 9.353593 -142.948796 -0.000000 0.101824 0.243211 -0.155756 -62.889991 601.826689 -0.000000 0.364949 0.399791 -0.402299
2.680000 18.033347 -126.248957 -0.000000 0.098434 0.251397 -0.155526 -66.648427 645.048264 -0.000000 0.367563 0.390746 -0.402231
2.685000 28.081880 -109.538525 -0.000000 0.095356 0.259576 -0.155477 -70.651894 683.974768 -0.000000 0.369798 0.381913 -0.402134
2.690000 38.501493 -93.400516 -0.000000 0.092787 0.267944 -0.155356 -73.098803 718.795985 -0.000000 0.371896 0.372630 -0.402054
2.695000 48.911932 -78.374731 -0.000000 0.090711 0.276461 -0.155398 -75.108133 749.705479 -0.000000 0.373748 0.363362 -0.402161
2.700000 58.776086 -65.098951 -0.000000 0.088996 0.285147 -0.155522 -76.431812 777.221889 -0.000000 0.375394 0.353987 -0.401960
2.705000 67.692782 -54.110607 -0.000000 0.087834 0.293895 -0.155637 -78.082915 801.867660 -0.000000 0.376872 0.344655 -0.401689
2.710000 75.182263 -45.895424 -0.000000 0.087255 0.302731 -0.155602 -80.297175 824.366469 -0.000000 0.377890 0.335342 -0.401807
2.715000 80.740196 -40.854841 -0.000000 0.087234 0.311731 -0.155537 -82.207012 845.633188 -0.000000 0.378669 0.325857 -0.401492
2.720000 84.010956 -38.893201 -0.000000 0.087810 0.320657 -0.155464 -85.549218 866.362810 -0.000000 0.379067 0.316585 -0.401077
2.725000 84.486515 -40.001348 -0.000000 0.088911 0.329777 -0.155468 -88.436868 887.611800 -0.000000 0.379373 0.307147 -0.401337
2.730000 81.929523 -43.589969 -0.000000 0.090570 0.338720 -0.155378 -92.818807 910.017111 -0.000000 0.378798 0.297915 -0.400684
2.735000 76.131343 -49.222352 -0.000000 0.092801 0.347651 -0.155403 -97.491999 934.415908 -0.000000 0.377882 0.288713 -0.400405
2.740000 67.175813 -56.229024 -0.000000 0.095598 0.356399 -0.155336 -103.010149 961.331787 -0.000000 0.376553 0.279666 -0.400066
2.745000 55.203008 -64.103697 -0.000000 0.099020 0.365161 -0.155133 -107.551890 991.413152 -0.000000 0.374654 0.270599 -0.399833
2.750000 40.689692 -72.174435 -0.000000 0.102103 0.373765 -0.155818 -112.246151 1024.823612 -0.000000 0.372269 0.261525 -0.399648
2.755000 24.078824 -80.015492 -0.000000 0.106451 0.382064 -0.155629 -115.315178 1061.800306 -0.000000 0.369399 0.252521 -0.399614
2.760000 5.986142 -87.223711 -0.000000 0.111449 0.390249 -0.155596 -116.011462 1102.190476 -0.000000 0.366013 0.243678 -0.399542
2.765000 -12.827111 -93.515104 -0.000000 0.116587 0.398158 -0.155543 -114.802473 1145.394122 -0.000000 0.362161 0.234972 -0.399556
2.770000 -31.828869 -98.690304 -0.000000 0.122327 0.406020 -0.155423 -109.286057 1190.685278 -0.000000 0.357808 0.226505 -0.399506
2.775000 -50.316895 -102.599594 -0.000000 0.128451 0.413532 -0.155483 -99.341145 1236.609048 -0.000000 0.352971 0.218144 -0.399627
2.780000 -67.569960 -105.194075 -0.000000 0.134885 0.420761 -0.155568 -85.515755 1281.264967 -0.000000 0.347700 0.210326 -0.399573
2.785000 -83.192092 -106.273847 -0.000000 0.141627 0.427927 -0.155728 -65.339434 1322.672422 -0.000000 0.341980 0.202696 -0.399412
2.790000 -96.537464 -105.830661 -0.000000 0.148682 0.434725 -0.155824 -40.700236 1358.381001 -0.000000 0.335874 0.195586 -0.399279
2.795000 -107.197380 -103.811902 -0.000000 0.155761 0.441227 -0.156122 -12.406468 1386.029487 -0.000000 0.329427 0.188911 -0.399174
2.800000 -115.054940 -100.062214 -0.000000 0.163119 0.447464 -0.156323 20.355764 1403.324860 -0.000000 0.322641 0.182506 -0.399147
2.805000 -119.954335 -94.721424 -0.000000 0.170660 0.453386 -0.156493 55.306471 1408.112600 -0.000000 0.315560 0.176684 -0.399146
2.810000 -122.048702 -87.870362 -0.000000 0.178240 0.459427 -0.156836 91.439473 1398.626504 -0.000000 0.308320 0.171303 -0.399112
2.815000 -121.716763 -79.536434 -0.000000 0.186555 0.464569 -0.156298 128.315835 1373.615653 -0.000000 0.300828 0.166437 -0.399009
2.820000 -119.147996 -70.253711 -0.000000 0.194193 0.469288 -0.157150 159.737047 1333.152266 -0.000000 0.293178 0.162115 -0.398962
2.825000 -115.121085 -59.723247 -0.000000 0.202289 0.473830 -0.157429 188.971573 1277.135077 -0.000000 0.285412 0.158372 -0.398912
2.830000 -110.050291 -48.145776 -0.000000 0.210762 0.477842 -0.157370 213.929231 1206.550553 -0.000000 0.277582 0.155235 -0.398869
2.835000 -104.281504 -35.880887 -0.000000 0.218947 0.481173 -0.158035 231.585639 1123.360973 -0.000000 0.269705 0.152610 -0.398831
2.840000 -98.291441 -23.009671 -0.000000 0.227309 0.484260 -0.158394 243.422242 1029.339061 -0.000000 0.261812 0.150532 -0.398842
2.845000 -92.404150 -9.966733 -0.000000 0.235826 0.487141 -0.158419 249.162074 926.905784 -0.000000 0.253928 0.148907 -0.398875
